<mxfile host="app.diagrams.net" modified="2023-08-17T03:38:13.883Z" agent="Mozilla/5.0 (Windows NT 10.0; Win64; x64) AppleWebKit/537.36 (KHTML, like Gecko) Chrome/115.0.0.0 Safari/537.36" etag="WSwHE3WI8CmJf8zi-lbE" version="21.6.8" type="github">
  <diagram name="Page-1" id="8KUcW-VzVu-j-1u7N0uQ">
    <mxGraphModel dx="794" dy="456" grid="1" gridSize="10" guides="1" tooltips="1" connect="1" arrows="1" fold="1" page="1" pageScale="1" pageWidth="850" pageHeight="1100" math="0" shadow="0">
      <root>
        <mxCell id="0" />
        <mxCell id="1" parent="0" />
        <mxCell id="fi34CmpAJg0IEcUJE-95-32" style="edgeStyle=orthogonalEdgeStyle;rounded=0;orthogonalLoop=1;jettySize=auto;html=1;exitX=0.5;exitY=1;exitDx=0;exitDy=0;entryX=0.5;entryY=0;entryDx=0;entryDy=0;" edge="1" parent="1" source="fi34CmpAJg0IEcUJE-95-1" target="fi34CmpAJg0IEcUJE-95-3">
          <mxGeometry relative="1" as="geometry" />
        </mxCell>
        <mxCell id="fi34CmpAJg0IEcUJE-95-34" style="edgeStyle=orthogonalEdgeStyle;rounded=0;orthogonalLoop=1;jettySize=auto;html=1;exitX=1;exitY=0.5;exitDx=0;exitDy=0;entryX=0;entryY=0.5;entryDx=0;entryDy=0;" edge="1" parent="1" source="fi34CmpAJg0IEcUJE-95-1" target="fi34CmpAJg0IEcUJE-95-2">
          <mxGeometry relative="1" as="geometry" />
        </mxCell>
        <mxCell id="fi34CmpAJg0IEcUJE-95-1" value="data and research gathering" style="rounded=0;whiteSpace=wrap;html=1;" vertex="1" parent="1">
          <mxGeometry x="390" y="190" width="120" height="60" as="geometry" />
        </mxCell>
        <mxCell id="fi34CmpAJg0IEcUJE-95-31" style="edgeStyle=orthogonalEdgeStyle;rounded=0;orthogonalLoop=1;jettySize=auto;html=1;exitX=0.5;exitY=1;exitDx=0;exitDy=0;entryX=1;entryY=0.5;entryDx=0;entryDy=0;" edge="1" parent="1" source="fi34CmpAJg0IEcUJE-95-2" target="fi34CmpAJg0IEcUJE-95-3">
          <mxGeometry relative="1" as="geometry" />
        </mxCell>
        <mxCell id="fi34CmpAJg0IEcUJE-95-2" value="profile generation using authentication" style="rounded=1;whiteSpace=wrap;html=1;" vertex="1" parent="1">
          <mxGeometry x="560" y="190" width="120" height="60" as="geometry" />
        </mxCell>
        <mxCell id="fi34CmpAJg0IEcUJE-95-27" style="edgeStyle=orthogonalEdgeStyle;rounded=0;orthogonalLoop=1;jettySize=auto;html=1;exitX=0.5;exitY=1;exitDx=0;exitDy=0;entryX=0.5;entryY=0;entryDx=0;entryDy=0;" edge="1" parent="1" source="fi34CmpAJg0IEcUJE-95-3" target="fi34CmpAJg0IEcUJE-95-4">
          <mxGeometry relative="1" as="geometry" />
        </mxCell>
        <mxCell id="fi34CmpAJg0IEcUJE-95-3" value="application interface" style="rounded=0;whiteSpace=wrap;html=1;" vertex="1" parent="1">
          <mxGeometry x="390" y="290" width="120" height="60" as="geometry" />
        </mxCell>
        <mxCell id="fi34CmpAJg0IEcUJE-95-26" style="edgeStyle=orthogonalEdgeStyle;rounded=0;orthogonalLoop=1;jettySize=auto;html=1;exitX=0.5;exitY=1;exitDx=0;exitDy=0;entryX=0.5;entryY=0;entryDx=0;entryDy=0;" edge="1" parent="1" source="fi34CmpAJg0IEcUJE-95-4" target="fi34CmpAJg0IEcUJE-95-5">
          <mxGeometry relative="1" as="geometry" />
        </mxCell>
        <mxCell id="fi34CmpAJg0IEcUJE-95-4" value="student personality prediction" style="rounded=0;whiteSpace=wrap;html=1;" vertex="1" parent="1">
          <mxGeometry x="390" y="390" width="120" height="60" as="geometry" />
        </mxCell>
        <mxCell id="fi34CmpAJg0IEcUJE-95-23" style="edgeStyle=orthogonalEdgeStyle;rounded=0;orthogonalLoop=1;jettySize=auto;html=1;exitX=0.5;exitY=1;exitDx=0;exitDy=0;entryX=0.5;entryY=0;entryDx=0;entryDy=0;" edge="1" parent="1" source="fi34CmpAJg0IEcUJE-95-5" target="fi34CmpAJg0IEcUJE-95-11">
          <mxGeometry relative="1" as="geometry" />
        </mxCell>
        <mxCell id="fi34CmpAJg0IEcUJE-95-5" value="analytical eda generation" style="rounded=0;whiteSpace=wrap;html=1;" vertex="1" parent="1">
          <mxGeometry x="390" y="510" width="120" height="60" as="geometry" />
        </mxCell>
        <mxCell id="fi34CmpAJg0IEcUJE-95-33" style="edgeStyle=orthogonalEdgeStyle;rounded=0;orthogonalLoop=1;jettySize=auto;html=1;exitX=1;exitY=0.5;exitDx=0;exitDy=0;entryX=0;entryY=0.5;entryDx=0;entryDy=0;" edge="1" parent="1" source="fi34CmpAJg0IEcUJE-95-6" target="fi34CmpAJg0IEcUJE-95-3">
          <mxGeometry relative="1" as="geometry" />
        </mxCell>
        <mxCell id="fi34CmpAJg0IEcUJE-95-6" value="sqlite database" style="rounded=1;whiteSpace=wrap;html=1;" vertex="1" parent="1">
          <mxGeometry x="190" y="290" width="120" height="60" as="geometry" />
        </mxCell>
        <mxCell id="fi34CmpAJg0IEcUJE-95-29" style="edgeStyle=orthogonalEdgeStyle;rounded=0;orthogonalLoop=1;jettySize=auto;html=1;exitX=0;exitY=0.5;exitDx=0;exitDy=0;entryX=1;entryY=0.5;entryDx=0;entryDy=0;" edge="1" parent="1" source="fi34CmpAJg0IEcUJE-95-7" target="fi34CmpAJg0IEcUJE-95-4">
          <mxGeometry relative="1" as="geometry" />
        </mxCell>
        <mxCell id="fi34CmpAJg0IEcUJE-95-7" value="random forest classifier" style="rounded=1;whiteSpace=wrap;html=1;" vertex="1" parent="1">
          <mxGeometry x="580" y="390" width="120" height="60" as="geometry" />
        </mxCell>
        <mxCell id="fi34CmpAJg0IEcUJE-95-28" style="edgeStyle=orthogonalEdgeStyle;rounded=0;orthogonalLoop=1;jettySize=auto;html=1;exitX=1;exitY=0.5;exitDx=0;exitDy=0;entryX=0;entryY=0.5;entryDx=0;entryDy=0;" edge="1" parent="1" source="fi34CmpAJg0IEcUJE-95-8" target="fi34CmpAJg0IEcUJE-95-4">
          <mxGeometry relative="1" as="geometry" />
        </mxCell>
        <mxCell id="fi34CmpAJg0IEcUJE-95-8" value="data cleaning" style="rounded=1;whiteSpace=wrap;html=1;" vertex="1" parent="1">
          <mxGeometry x="190" y="390" width="120" height="60" as="geometry" />
        </mxCell>
        <mxCell id="fi34CmpAJg0IEcUJE-95-25" style="edgeStyle=orthogonalEdgeStyle;rounded=0;orthogonalLoop=1;jettySize=auto;html=1;exitX=0;exitY=0.5;exitDx=0;exitDy=0;" edge="1" parent="1" source="fi34CmpAJg0IEcUJE-95-9" target="fi34CmpAJg0IEcUJE-95-11">
          <mxGeometry relative="1" as="geometry" />
        </mxCell>
        <mxCell id="fi34CmpAJg0IEcUJE-95-9" value="image point verification" style="rounded=1;whiteSpace=wrap;html=1;" vertex="1" parent="1">
          <mxGeometry x="590" y="620" width="120" height="60" as="geometry" />
        </mxCell>
        <mxCell id="fi34CmpAJg0IEcUJE-95-24" style="edgeStyle=orthogonalEdgeStyle;rounded=0;orthogonalLoop=1;jettySize=auto;html=1;exitX=1;exitY=0.5;exitDx=0;exitDy=0;entryX=0;entryY=0.5;entryDx=0;entryDy=0;" edge="1" parent="1" source="fi34CmpAJg0IEcUJE-95-10" target="fi34CmpAJg0IEcUJE-95-11">
          <mxGeometry relative="1" as="geometry" />
        </mxCell>
        <mxCell id="fi34CmpAJg0IEcUJE-95-10" value="encoded face authentication" style="rounded=1;whiteSpace=wrap;html=1;" vertex="1" parent="1">
          <mxGeometry x="180" y="620" width="120" height="60" as="geometry" />
        </mxCell>
        <mxCell id="fi34CmpAJg0IEcUJE-95-22" style="edgeStyle=orthogonalEdgeStyle;rounded=0;orthogonalLoop=1;jettySize=auto;html=1;exitX=0.5;exitY=1;exitDx=0;exitDy=0;" edge="1" parent="1" source="fi34CmpAJg0IEcUJE-95-11" target="fi34CmpAJg0IEcUJE-95-12">
          <mxGeometry relative="1" as="geometry" />
        </mxCell>
        <mxCell id="fi34CmpAJg0IEcUJE-95-11" value="attendance algo" style="rounded=0;whiteSpace=wrap;html=1;" vertex="1" parent="1">
          <mxGeometry x="390" y="620" width="120" height="60" as="geometry" />
        </mxCell>
        <mxCell id="fi34CmpAJg0IEcUJE-95-12" value="t5 dox summ algo" style="rounded=0;whiteSpace=wrap;html=1;" vertex="1" parent="1">
          <mxGeometry x="390" y="760" width="120" height="60" as="geometry" />
        </mxCell>
        <mxCell id="fi34CmpAJg0IEcUJE-95-20" style="edgeStyle=orthogonalEdgeStyle;rounded=0;orthogonalLoop=1;jettySize=auto;html=1;exitX=1;exitY=0.5;exitDx=0;exitDy=0;entryX=0;entryY=0.5;entryDx=0;entryDy=0;" edge="1" parent="1" source="fi34CmpAJg0IEcUJE-95-13" target="fi34CmpAJg0IEcUJE-95-12">
          <mxGeometry relative="1" as="geometry" />
        </mxCell>
        <mxCell id="fi34CmpAJg0IEcUJE-95-13" value="natural language toolkit" style="rounded=1;whiteSpace=wrap;html=1;" vertex="1" parent="1">
          <mxGeometry x="180" y="760" width="120" height="60" as="geometry" />
        </mxCell>
        <mxCell id="fi34CmpAJg0IEcUJE-95-21" style="edgeStyle=orthogonalEdgeStyle;rounded=0;orthogonalLoop=1;jettySize=auto;html=1;exitX=0.5;exitY=1;exitDx=0;exitDy=0;" edge="1" parent="1" source="fi34CmpAJg0IEcUJE-95-14" target="fi34CmpAJg0IEcUJE-95-15">
          <mxGeometry relative="1" as="geometry" />
        </mxCell>
        <mxCell id="fi34CmpAJg0IEcUJE-95-14" value="recomendation using counvectors" style="rounded=0;whiteSpace=wrap;html=1;" vertex="1" parent="1">
          <mxGeometry x="390" y="890" width="120" height="60" as="geometry" />
        </mxCell>
        <mxCell id="fi34CmpAJg0IEcUJE-95-15" value="deployment using streamlit" style="rhombus;whiteSpace=wrap;html=1;" vertex="1" parent="1">
          <mxGeometry x="410" y="1000" width="80" height="80" as="geometry" />
        </mxCell>
        <mxCell id="fi34CmpAJg0IEcUJE-95-17" style="edgeStyle=orthogonalEdgeStyle;rounded=0;orthogonalLoop=1;jettySize=auto;html=1;exitX=0.5;exitY=0;exitDx=0;exitDy=0;" edge="1" parent="1" source="fi34CmpAJg0IEcUJE-95-14" target="fi34CmpAJg0IEcUJE-95-12">
          <mxGeometry relative="1" as="geometry" />
        </mxCell>
        <mxCell id="fi34CmpAJg0IEcUJE-95-18" style="edgeStyle=orthogonalEdgeStyle;rounded=0;orthogonalLoop=1;jettySize=auto;html=1;exitX=0;exitY=0.5;exitDx=0;exitDy=0;entryX=1;entryY=0.5;entryDx=0;entryDy=0;" edge="1" parent="1" source="fi34CmpAJg0IEcUJE-95-16" target="fi34CmpAJg0IEcUJE-95-12">
          <mxGeometry relative="1" as="geometry" />
        </mxCell>
        <mxCell id="fi34CmpAJg0IEcUJE-95-19" style="edgeStyle=orthogonalEdgeStyle;rounded=0;orthogonalLoop=1;jettySize=auto;html=1;exitX=0;exitY=0.5;exitDx=0;exitDy=0;entryX=1;entryY=0.5;entryDx=0;entryDy=0;" edge="1" parent="1" source="fi34CmpAJg0IEcUJE-95-16" target="fi34CmpAJg0IEcUJE-95-14">
          <mxGeometry relative="1" as="geometry" />
        </mxCell>
        <mxCell id="fi34CmpAJg0IEcUJE-95-16" value="strategy generation&amp;nbsp;&lt;br&gt;using graphical interpretation" style="rounded=0;whiteSpace=wrap;html=1;" vertex="1" parent="1">
          <mxGeometry x="580" y="820" width="120" height="60" as="geometry" />
        </mxCell>
      </root>
    </mxGraphModel>
  </diagram>
</mxfile>
